<svg width="100" height="100" viewBox="0 0 100 100" fill="none" xmlns="http://www.w3.org/2000/svg">
  <g clip-path="url(#clip0_201_2)">
    <rect width="100" height="100" rx="15" fill="black" />
    <path d="M65.0127 41.6582C66.1553 47.3203 66.9085 51.2643 67.2725 53.4902C67.6449 55.7077 67.8311 57.1973 67.8311 57.959C67.8311 58.1113 67.8226 58.3145 67.8057 58.5684C67.0693 59.0254 66.1849 59.2539 65.1523 59.2539C64.5091 59.2539 63.904 59.1608 63.3369 58.9746C62.7783 58.7884 62.3509 58.5387 62.0547 58.2256L63.083 54.7725L62.8418 53.668H62.1562C61.1068 53.6087 60.0319 53.5326 58.9316 53.4395C58.7793 54.7005 58.61 55.7161 58.4238 56.4863C58.2376 57.2565 57.9076 57.9124 57.4336 58.4541C56.9681 58.9873 56.3079 59.2539 55.4531 59.2539C54.7083 59.2539 54.0186 59.0719 53.3838 58.708C52.749 58.3441 52.3132 57.849 52.0762 57.2227L52.6475 55.1533L54.3232 55.293L56.5322 44.1846C55.1865 43.9984 54.2132 43.791 53.6123 43.5625C53.6377 42.8262 53.79 42.0475 54.0693 41.2266C54.3571 40.4056 54.7464 39.7751 55.2373 39.335C58.3604 39.8512 61.6188 40.6257 65.0127 41.6582ZM62.1816 50.6846L60.8613 44.6416L59.7695 44.5527C59.7272 45.2891 59.6553 46.2497 59.5537 47.4346C59.4606 48.6195 59.3506 49.7959 59.2236 50.9639L62.1816 50.6846Z"
          fill="white" />
    <path d="M49.167 32.4404C49.3053 34.1559 49.3745 36.0651 49.3745 38.168C49.3745 42.4567 49.167 47.5202 48.752 53.3584C48.3646 59.1966 47.9495 63.9834 47.5068 67.7188C48.5583 67.5804 49.8172 67.2484 51.2837 66.7227C52.7502 66.1969 55.1989 65.27 58.6299 63.9419C61.5628 62.8075 63.7764 61.9635 65.2705 61.4102L68.3833 68.3413C67.3595 70.0845 65.7824 71.9383 63.6519 73.9028C61.5213 75.8674 59.0173 77.5967 56.1396 79.0908C53.2897 80.585 50.3429 81.498 47.2993 81.8301C45.9989 81.8301 44.4632 81.3459 42.6924 80.3774C40.9492 79.409 39.2752 78.3022 37.6704 77.0571C36.7573 76.3377 36.0933 75.6737 35.6782 75.0649C35.2632 74.4285 35.0003 73.7507 34.8896 73.0312C34.5576 66.363 34.2256 60.5386 33.8936 55.5581C33.1465 43.8817 32.4132 36.1619 31.6938 32.3989C31.5278 31.4582 31.4448 29.8672 31.4448 27.626C31.7769 26.3532 32.5654 24.9836 33.8105 23.5171C35.0833 22.0506 36.5775 20.7087 38.293 19.4912C40.0085 18.2461 41.6825 17.3192 43.3149 16.7104C44.6154 16.9595 46.4139 17.4852 48.7104 18.2876C51.0347 19.09 52.8193 19.8094 54.0645 20.4458L67.1797 19.5327C67.5394 21.2482 67.7192 22.936 67.7192 24.5962C67.7192 27.0311 67.3734 29.3 66.6816 31.4028C66.0176 33.478 65.2152 35.1935 64.2744 36.5493C63.3613 37.9051 62.5451 38.749 61.8257 39.0811C57.8413 37.4209 53.9538 34.903 50.1631 31.5273L49.167 32.4404Z"
          fill="white" />
  </g>
  <defs>
    <clipPath id="clip0_201_2">
      <rect width="100" height="100" rx="15" fill="white" />
    </clipPath>
  </defs>
</svg>
